<svg width="1440" height="925" viewBox="0 0 1440 925" fill="none" xmlns="http://www.w3.org/2000/svg">
<mask id="mask0_711_2" style="mask-type:alpha" maskUnits="userSpaceOnUse" x="0" y="0" width="1440" height="925">
<rect width="1440" height="925" fill="white"/>
</mask>
<g mask="url(#mask0_711_2)">
<rect width="1440" height="925" fill="white"/>
<path d="M58.2959 525.078C59.3145 521.031 61.5734 517.404 64.7562 514.705L219.138 383.797C224.827 378.973 232.727 377.716 239.633 380.535L570.965 515.803C575.76 517.761 581.127 517.782 585.938 515.862L711.814 465.622C713.509 464.946 715.103 464.041 716.552 462.932L1115.9 157.437C1121.16 153.411 1128.07 152.253 1134.36 154.345L1455.98 261.369C1457.54 261.888 1459.03 262.598 1460.42 263.482L1577.75 338.294C1583.51 341.967 1587 348.326 1587 355.157V1134C1587 1145.05 1578.05 1154 1567 1154H-74.3424C-87.367 1154 -96.9165 1141.75 -93.7374 1129.12L58.2959 525.078Z" fill="#66A0C1"/>
<path d="M502.374 716.278C504.338 707.041 512.494 700.437 521.937 700.437H930.866C935.954 700.437 940.85 698.498 944.558 695.015L1342.68 321.087C1350.03 314.182 1361.37 313.832 1369.14 320.271L1483.55 415.16C1489.03 419.708 1491.69 426.829 1490.51 433.855L1447.47 691.107C1446.48 697.013 1448.19 703.052 1452.13 707.562L1609.66 887.958C1621.46 901.473 1610.87 922.49 1592.98 921.048L634.183 843.751C630.664 843.467 627.132 844.12 623.947 845.643L494.636 907.481C479.667 914.639 462.994 901.508 466.445 885.278L502.374 716.278Z" fill="#81D1FF"/>
<path d="M722.089 512.619C727.995 509.727 734.946 509.923 740.679 513.143L1098.21 713.938C1101.2 715.618 1104.57 716.5 1108 716.5H1303.73C1309.35 716.5 1314.7 718.863 1318.49 723.011L1472.41 891.511C1484.14 904.348 1475.03 925 1457.64 925H-33.685C-54.8793 925 -61.5156 896.36 -42.4812 887.038L722.089 512.619Z" fill="#6CB6E0"/>
<path d="M705.497 520.745C721.793 512.764 740.967 513.305 756.788 522.19L1090.18 709.431C1098.44 714.066 1107.74 716.5 1117.2 716.5H1288.21C1303.71 716.5 1318.5 723.022 1328.96 734.472L1418.51 832.508C1450.89 867.953 1425.76 925 1377.76 925H118.354C59.848 925 41.5362 845.894 94.0855 820.16L705.497 520.745Z" fill="#6CB6E0"/>
</g>
</svg>
