<svg width="390" height="844" viewBox="0 0 390 844" fill="none" xmlns="http://www.w3.org/2000/svg">
<rect width="390" height="844" fill="white"/>
<mask id="mask0_711_80" style="mask-type:alpha" maskUnits="userSpaceOnUse" x="0" y="0" width="390" height="844">
<rect width="390" height="844" fill="white"/>
</mask>
<g mask="url(#mask0_711_80)">
<path d="M3.79823 638.221C4.8158 634.175 7.07303 630.549 10.2539 627.85L59.7392 585.858C65.4295 581.03 73.3349 579.771 80.2435 582.594L193.695 628.944C198.493 630.904 203.864 630.926 208.677 629.003L249.945 612.52C251.64 611.843 253.235 610.937 254.684 609.828L398.873 499.444C404.138 495.414 411.059 494.255 417.35 496.35L531.065 534.217C532.626 534.737 534.117 535.448 535.504 536.333L572.758 560.103C578.515 563.776 582 570.134 582 576.963V852C582 863.046 573.046 872 562 872H-29.3469C-42.37 872 -51.9194 859.752 -48.7428 847.122L3.79823 638.221Z" fill="#66A0C1"/>
<path d="M-41.8675 802.341C-39.904 793.105 -31.7476 786.5 -22.3046 786.5H157.666C162.754 786.5 167.651 784.561 171.359 781.077L349.13 614.09C356.482 607.183 367.827 606.833 375.591 613.273L417.644 648.155C423.127 652.702 425.777 659.822 424.602 666.848L406.147 777.171C405.159 783.077 406.869 789.114 410.807 793.625L464.66 855.305C476.46 868.82 465.87 889.836 447.986 888.394L24.8733 854.279C21.3539 853.995 17.8221 854.648 14.6368 856.172L-24.364 874.824C-39.3324 881.983 -56.006 868.852 -52.556 852.623L-41.8675 802.341Z" fill="#81D1FF"/>
<path d="M200.071 697.615C205.974 694.725 212.921 694.921 218.653 698.138L339.439 765.94C342.429 767.618 345.8 768.5 349.229 768.5H411.183C416.8 768.5 422.158 770.861 425.947 775.007L458.39 810.507C470.12 823.342 461.015 844 443.627 844H-12.6462C-33.8426 844 -40.4768 815.355 -21.4386 806.036L200.071 697.615Z" fill="#6CB6E0"/>
<path d="M200.071 697.615C205.974 694.725 212.921 694.921 218.653 698.138L339.439 765.94C342.429 767.618 345.8 768.5 349.229 768.5H411.183C416.8 768.5 422.157 770.861 425.947 775.007L458.39 810.507C470.12 823.342 461.015 844 443.627 844H-12.6462C-33.8426 844 -40.4768 815.355 -21.4386 806.036L200.071 697.615Z" fill="#6CB6E0"/>
</g>
</svg>
